<?xml version="1.0" encoding="UTF-8" standalone="no"?>
<!-- Created with Inkscape (http://www.inkscape.org/) -->

<svg
   xmlns:dc="http://purl.org/dc/elements/1.1/"
   xmlns:cc="http://creativecommons.org/ns#"
   xmlns:rdf="http://www.w3.org/1999/02/22-rdf-syntax-ns#"
   xmlns:svg="http://www.w3.org/2000/svg"
   xmlns="http://www.w3.org/2000/svg"
   xmlns:sodipodi="http://sodipodi.sourceforge.net/DTD/sodipodi-0.dtd"
   xmlns:inkscape="http://www.inkscape.org/namespaces/inkscape"
   width="744.09448819"
   height="1052.3622047"
   id="svg2"
   version="1.1"
   inkscape:version="0.48.5 r10040"
   sodipodi:docname="source.svg">
  <defs
     id="defs4" />
  <sodipodi:namedview
     id="base"
     pagecolor="#ffffff"
     bordercolor="#666666"
     borderopacity="1.0"
     inkscape:pageopacity="0.0"
     inkscape:pageshadow="2"
     inkscape:zoom="0.70710678"
     inkscape:cx="7.0103781"
     inkscape:cy="575.31315"
     inkscape:document-units="px"
     inkscape:current-layer="layer1"
     showgrid="false"
     inkscape:snap-bbox="true"
     inkscape:bbox-paths="true"
     inkscape:bbox-nodes="true"
     inkscape:snap-bbox-edge-midpoints="true"
     inkscape:snap-bbox-midpoints="true"
     inkscape:object-paths="true"
     inkscape:object-nodes="true"
     inkscape:snap-intersection-paths="true"
     inkscape:snap-smooth-nodes="true"
     inkscape:snap-midpoints="true"
     inkscape:snap-object-midpoints="true"
     inkscape:snap-center="true"
     inkscape:snap-page="true"
     inkscape:snap-global="true"
     inkscape:window-width="1920"
     inkscape:window-height="1057"
     inkscape:window-x="-4"
     inkscape:window-y="1076"
     inkscape:window-maximized="1" />
  <metadata
     id="metadata7">
    <rdf:RDF>
      <cc:Work
         rdf:about="">
        <dc:format>image/svg+xml</dc:format>
        <dc:type
           rdf:resource="http://purl.org/dc/dcmitype/StillImage" />
        <dc:title></dc:title>
      </cc:Work>
    </rdf:RDF>
  </metadata>
  <g
     inkscape:label="Layer 1"
     inkscape:groupmode="layer"
     id="layer1">
    <g
       id="g3893"
       transform="translate(-55.079131,-17.753738)"
       inkscape:export-xdpi="90"
       inkscape:export-ydpi="90">
      <path
         sodipodi:nodetypes="ccccccccscccc"
         inkscape:connector-curvature="0"
         id="path3880"
         d="m 112.53125,332.03125 c -0.69061,-0.011 -1.27028,0.55939 -1.28125,1.25 l 0,21.71875 c -0.011,0.69061 0.52814,1.23903 1.21875,1.25 l 0.0312,0 c 0.28964,0.0166 0.49076,-0.0848 0.625,-0.15625 l 18.65625,-10.78125 0.1875,-0.125 c 0.34053,-0.21888 0.58685,-0.59695 0.59375,-1.03125 0.008,-0.47859 -0.27247,-0.82651 -0.64063,-1.07031 L 131.78125,343 l -18.625,-10.78125 c -0.18702,-0.0957 -0.4238,-0.17498 -0.625,-0.1875 z"
         style="fill:#ffffff;fill-opacity:1;stroke:none" />
      <path
         transform="matrix(1.1923444,0,0,1.1980769,-21.234396,-66.849395)"
         d="m 137.32143,342.54074 c 0,10.25672 -8.35469,18.57143 -18.66072,18.57143 -10.30603,0 -18.660712,-8.31471 -18.660712,-18.57143 0,-10.25672 8.354682,-18.57143 18.660712,-18.57143 10.30603,0 18.66072,8.31471 18.66072,18.57143 z"
         sodipodi:ry="18.571428"
         sodipodi:rx="18.660715"
         sodipodi:cy="342.54074"
         sodipodi:cx="118.66071"
         id="path3075"
         style="fill:none;stroke:#999999;stroke-width:1.25501251;stroke-miterlimit:4;stroke-opacity:1;stroke-dasharray:none"
         sodipodi:type="arc" />
    </g>
    <g
       transform="translate(-9.0791327,-17.753738)"
       id="g3903"
       inkscape:export-xdpi="90"
       inkscape:export-ydpi="90">
      <path
         style="fill:#ffffff;fill-opacity:1;stroke:none"
         d="m 112.53125,332.03125 c -0.69061,-0.011 -1.27028,0.55939 -1.28125,1.25 l 0,21.71875 c -0.011,0.69061 0.52814,1.23903 1.21875,1.25 l 0.0312,0 c 0.28964,0.0166 0.49076,-0.0848 0.625,-0.15625 l 18.65625,-10.78125 0.1875,-0.125 c 0.34053,-0.21888 0.58685,-0.59695 0.59375,-1.03125 0.008,-0.47859 -0.27247,-0.82651 -0.64063,-1.07031 L 131.78125,343 l -18.625,-10.78125 c -0.18702,-0.0957 -0.4238,-0.17498 -0.625,-0.1875 z"
         id="path3905"
         inkscape:connector-curvature="0"
         sodipodi:nodetypes="ccccccccscccc" />
      <path
         sodipodi:type="arc"
         style="fill:none;stroke:#1ed760;stroke-width:1.25501251000000000;stroke-miterlimit:4;stroke-opacity:1;stroke-dasharray:none"
         id="path3907"
         sodipodi:cx="118.66071"
         sodipodi:cy="342.54074"
         sodipodi:rx="18.660715"
         sodipodi:ry="18.571428"
         d="m 137.32143,342.54074 c 0,10.25672 -8.35469,18.57143 -18.66072,18.57143 -10.30603,0 -18.660712,-8.31471 -18.660712,-18.57143 0,-10.25672 8.354682,-18.57143 18.660712,-18.57143 10.30603,0 18.66072,8.31471 18.66072,18.57143 z"
         transform="matrix(1.1923444,0,0,1.1980769,-21.234396,-66.849395)" />
    </g>
    <g
       id="g3926"
       inkscape:export-xdpi="90"
       inkscape:export-ydpi="90">
      <path
         sodipodi:type="arc"
         style="fill:none;stroke:#999999;stroke-width:1.25501251;stroke-miterlimit:4;stroke-opacity:1;stroke-dasharray:none"
         id="path3913"
         sodipodi:cx="118.66071"
         sodipodi:cy="342.54074"
         sodipodi:rx="18.660715"
         sodipodi:ry="18.571428"
         d="m 137.32143,342.54074 a 18.660715,18.571428 0 1 1 -37.321432,0 18.660715,18.571428 0 1 1 37.321432,0 z"
         transform="matrix(1.1923444,0,0,1.1980769,15.68647,-84.603133)" />
      <rect
         rx="1.8561553"
         ry="1.8561553"
         y="313.66849"
         x="147.00076"
         height="24.130018"
         width="6.1871843"
         id="rect3921"
         style="fill:#ffffff;fill-opacity:1;stroke:none" />
      <rect
         style="fill:#ffffff;fill-opacity:1;stroke:none"
         id="rect3923"
         width="6.1871843"
         height="24.130018"
         x="160.14989"
         y="313.66849"
         ry="1.8561553"
         rx="1.8561553" />
    </g>
    <g
       id="g3931"
       transform="translate(45.999998,0)"
       inkscape:export-xdpi="90"
       inkscape:export-ydpi="90">
      <path
         transform="matrix(1.1923444,0,0,1.1980769,15.68647,-84.603133)"
         d="m 137.32143,342.54074 c 0,10.25672 -8.35469,18.57143 -18.66072,18.57143 -10.30603,0 -18.660712,-8.31471 -18.660712,-18.57143 0,-10.25672 8.354682,-18.57143 18.660712,-18.57143 10.30603,0 18.66072,8.31471 18.66072,18.57143 z"
         sodipodi:ry="18.571428"
         sodipodi:rx="18.660715"
         sodipodi:cy="342.54074"
         sodipodi:cx="118.66071"
         id="path3933"
         style="fill:none;stroke:#ffffff;stroke-width:1.25501251000000000;stroke-miterlimit:4;stroke-opacity:1;stroke-dasharray:none"
         sodipodi:type="arc" />
      <rect
         style="fill:#ffffff;fill-opacity:1;stroke:none"
         id="rect3935"
         width="6.1871843"
         height="24.130018"
         x="147.00076"
         y="313.66849"
         ry="1.8561553"
         rx="1.8561553" />
      <rect
         rx="1.8561553"
         ry="1.8561553"
         y="313.66849"
         x="160.14989"
         height="24.130018"
         width="6.1871843"
         id="rect3937"
         style="fill:#ffffff;fill-opacity:1;stroke:none" />
    </g>
    <g
       id="g3992"
       inkscape:export-xdpi="90"
       inkscape:export-ydpi="90">
      <rect
         y="302.78702"
         x="226.1709"
         height="46"
         width="46"
         id="rect3970"
         style="fill:none;fill-opacity:1;stroke:none" />
      <g
         transform="translate(25.810623,-46.787659)"
         id="g3966">
        <path
           sodipodi:nodetypes="ccccccccscccc"
           inkscape:connector-curvature="0"
           id="path3939"
           d="m 230.36982,381.64233 c 0.51647,0.008 0.94997,-0.41833 0.95818,-0.9348 l 0,-16.24226 c 0.008,-0.51646 -0.39496,-0.9266 -0.91143,-0.9348 l -0.0233,0 c -0.2166,-0.0127 -0.36701,0.0635 -0.4674,0.11691 l -13.95199,8.0627 -0.14023,0.0934 c -0.25466,0.16368 -0.43887,0.44642 -0.44403,0.77121 -0.006,0.35792 0.20377,0.61811 0.47909,0.80043 l 0.10517,0.0642 13.92861,8.0627 c 0.13981,0.0715 0.31694,0.1309 0.4674,0.14023 z"
           style="fill:#ffffff;fill-opacity:1;stroke:none" />
        <rect
           rx="1.8561553"
           ry="1.8561553"
           y="-381.63181"
           x="-219.36028"
           height="18.114258"
           width="4.6446819"
           id="rect3941"
           style="fill:#ffffff;fill-opacity:1;stroke:none"
           transform="scale(-1,-1)" />
      </g>
    </g>
    <g
       id="g3998"
       inkscape:export-xdpi="90"
       inkscape:export-ydpi="90">
      <rect
         style="fill:none;fill-opacity:1;stroke:none"
         id="rect3984"
         width="46"
         height="46"
         x="272.1709"
         y="302.78702" />
      <g
         id="g3986"
         transform="translate(71.810623,-46.787659)">
        <path
           style="fill:#dfe0e6;fill-opacity:1;stroke:none"
           d="m 230.36982,381.64233 c 0.51647,0.008 0.94997,-0.41833 0.95818,-0.9348 l 0,-16.24226 c 0.008,-0.51646 -0.39496,-0.9266 -0.91143,-0.9348 l -0.0233,0 c -0.2166,-0.0127 -0.36701,0.0635 -0.4674,0.11691 l -13.95199,8.0627 -0.14023,0.0934 c -0.25466,0.16368 -0.43887,0.44642 -0.44403,0.77121 -0.006,0.35792 0.20377,0.61811 0.47909,0.80043 l 0.10517,0.0642 13.92861,8.0627 c 0.13981,0.0715 0.31694,0.1309 0.4674,0.14023 z"
           id="path3988"
           inkscape:connector-curvature="0"
           sodipodi:nodetypes="ccccccccscccc" />
        <rect
           transform="scale(-1,-1)"
           style="fill:#dfe0e6;fill-opacity:1;stroke:none"
           id="rect3990"
           width="4.6446819"
           height="18.114258"
           x="-219.36028"
           y="-381.63181"
           ry="1.8561553"
           rx="1.8561553" />
      </g>
    </g>
    <g
       id="g4018"
       inkscape:export-xdpi="90"
       inkscape:export-ydpi="90">
      <rect
         style="fill:none;fill-opacity:1;stroke:none"
         id="rect3974"
         width="46"
         height="46"
         x="318.1709"
         y="302.78702" />
      <rect
         style="fill:none;fill-opacity:1;stroke:none"
         id="rect4006"
         width="46"
         height="46"
         x="318.1709"
         y="302.78702" />
      <g
         id="g4008"
         transform="matrix(-1,0,0,-1,563.85433,698.37233)">
        <path
           style="fill:#ffffff;fill-opacity:1;stroke:none"
           d="m 230.36982,381.64233 c 0.51647,0.008 0.94997,-0.41833 0.95818,-0.9348 l 0,-16.24226 c 0.008,-0.51646 -0.39496,-0.9266 -0.91143,-0.9348 l -0.0233,0 c -0.2166,-0.0127 -0.36701,0.0635 -0.4674,0.11691 l -13.95199,8.0627 -0.14023,0.0934 c -0.25466,0.16368 -0.43887,0.44642 -0.44403,0.77121 -0.006,0.35792 0.20377,0.61811 0.47909,0.80043 l 0.10517,0.0642 13.92861,8.0627 c 0.13981,0.0715 0.31694,0.1309 0.4674,0.14023 z"
           id="path4010"
           inkscape:connector-curvature="0"
           sodipodi:nodetypes="ccccccccscccc" />
        <rect
           transform="scale(-1,-1)"
           style="fill:#ffffff;fill-opacity:1;stroke:none"
           id="rect4012"
           width="4.6446819"
           height="18.114258"
           x="-219.36028"
           y="-381.63181"
           ry="1.8561553"
           rx="1.8561553" />
      </g>
    </g>
    <g
       id="g4025"
       transform="translate(46,0)"
       inkscape:export-xdpi="90"
       inkscape:export-ydpi="90">
      <rect
         y="302.78702"
         x="318.1709"
         height="46"
         width="46"
         id="rect4027"
         style="fill:none;fill-opacity:1;stroke:none" />
      <rect
         y="302.78702"
         x="318.1709"
         height="46"
         width="46"
         id="rect4029"
         style="fill:none;fill-opacity:1;stroke:none" />
      <g
         transform="matrix(-1,0,0,-1,563.85433,698.37233)"
         id="g4031">
        <path
           sodipodi:nodetypes="ccccccccscccc"
           inkscape:connector-curvature="0"
           id="path4033"
           d="m 230.36982,381.64233 c 0.51647,0.008 0.94997,-0.41833 0.95818,-0.9348 l 0,-16.24226 c 0.008,-0.51646 -0.39496,-0.9266 -0.91143,-0.9348 l -0.0233,0 c -0.2166,-0.0127 -0.36701,0.0635 -0.4674,0.11691 l -13.95199,8.0627 -0.14023,0.0934 c -0.25466,0.16368 -0.43887,0.44642 -0.44403,0.77121 -0.006,0.35792 0.20377,0.61811 0.47909,0.80043 l 0.10517,0.0642 13.92861,8.0627 c 0.13981,0.0715 0.31694,0.1309 0.4674,0.14023 z"
           style="fill:#dfe0e6;fill-opacity:1;stroke:none" />
        <rect
           rx="1.8561553"
           ry="1.8561553"
           y="-381.63181"
           x="-219.36028"
           height="18.114258"
           width="4.6446819"
           id="rect4035"
           style="fill:#dfe0e6;fill-opacity:1;stroke:none"
           transform="scale(-1,-1)" />
      </g>
    </g>
    <g
       id="g4070"
       transform="matrix(1.0306231,0,0,1.0116551,-386.37506,-106.13063)"
       inkscape:export-xdpi="90"
       inkscape:export-ydpi="90">
      <path
         id="path4065"
         d="m 427.15625,449.6875 c -6.2781,0 -11.34375,5.06565 -11.34375,11.34375 0,6.2781 5.06565,11.375 11.34375,11.375 0.0103,0 0.021,3e-5 0.0312,0 l 20.90625,0 0,-22.71875 -20.90625,0 c -0.0103,-3e-5 -0.021,0 -0.0312,0 z"
         style="fill:#1ed760;fill-opacity:1;stroke:none"
         inkscape:connector-curvature="0" />
      <path
         transform="matrix(1.020704,0,0,1.020704,-9.2990705,-8.8237208)"
         d="m 459.26584,460.33704 c 0,6.15075 -4.98618,11.13693 -11.13693,11.13693 -6.15076,0 -11.13694,-4.98618 -11.13694,-11.13693 0,-6.15076 4.98618,-11.13694 11.13694,-11.13694 6.15075,0 11.13693,4.98618 11.13693,11.13694 z"
         sodipodi:ry="11.136931"
         sodipodi:rx="11.136931"
         sodipodi:cy="460.33704"
         sodipodi:cx="448.12891"
         id="path4061"
         style="fill:#dfe0e6;fill-opacity:1;stroke:none"
         sodipodi:type="arc" />
    </g>
    <g
       transform="matrix(-1.0306231,0,0,-1.0116551,560.71688,826.70467)"
       id="g4078"
       inkscape:export-xdpi="90"
       inkscape:export-ydpi="90">
      <path
         inkscape:connector-curvature="0"
         style="fill:#3e3e40;fill-opacity:1;stroke:none"
         d="m 427.15625,449.6875 c -6.2781,0 -11.34375,5.06565 -11.34375,11.34375 0,6.2781 5.06565,11.375 11.34375,11.375 0.0103,0 0.021,3e-5 0.0312,0 l 20.90625,0 0,-22.71875 -20.90625,0 c -0.0103,-3e-5 -0.021,0 -0.0312,0 z"
         id="path4080" />
      <path
         sodipodi:type="inkscape:offset"
         inkscape:radius="-2.1842511"
         inkscape:original="M 427.15625 449.6875 C 420.87815 449.6875 415.8125 454.75315 415.8125 461.03125 C 415.8125 467.30935 420.87815 472.40625 427.15625 472.40625 C 427.16655 472.40625 427.1773 472.40628 427.1875 472.40625 L 448.09375 472.40625 L 448.09375 449.6875 L 427.1875 449.6875 C 427.1772 449.68747 427.16645 449.6875 427.15625 449.6875 z "
         style="fill:#000000;fill-opacity:1;stroke:none"
         id="path4088"
         d="m 427.15625,451.875 c -5.10315,0 -9.15625,4.0531 -9.15625,9.15625 0,5.10315 4.06035,9.1875 9.15625,9.1875 0.0145,0 0.0299,0 0.0312,0 l 18.71875,0 0,-18.34375 -18.71875,0 c -0.002,0 -0.0168,0 -0.0312,0 z" />
      <path
         sodipodi:type="arc"
         style="fill:#88898c;fill-opacity:1;stroke:none"
         id="path4082"
         sodipodi:cx="448.12891"
         sodipodi:cy="460.33704"
         sodipodi:rx="11.136931"
         sodipodi:ry="11.136931"
         d="m 459.26584,460.33704 c 0,6.15075 -4.98618,11.13693 -11.13693,11.13693 -6.15076,0 -11.13694,-4.98618 -11.13694,-11.13693 0,-6.15076 4.98618,-11.13694 11.13694,-11.13694 6.15075,0 11.13693,4.98618 11.13693,11.13694 z"
         transform="matrix(1.020704,0,0,1.020704,-9.2990705,-8.8237208)" />
    </g>
    <g
       id="g3844"
       transform="translate(307.17091,-373.57517)">
      <rect
         y="436.36218"
         x="-265"
         height="240"
         width="240"
         id="rect3047"
         style="fill:#1ed760;fill-opacity:1;stroke:none" />
      <g
         transform="translate(-498.19984,-6.282943)"
         id="g3839">
        <path
           style="fill:none;stroke:#000000;stroke-width:22.10000038;stroke-linecap:round;stroke-linejoin:miter;stroke-miterlimit:4;stroke-opacity:1;stroke-dasharray:none"
           d="m 279.30718,522.7392 c 56.7298,-15.44466 104.20313,-4.44227 147.78532,17.67767"
           id="path3831"
           inkscape:connector-curvature="0"
           sodipodi:nodetypes="cc" />
        <path
           style="fill:none;stroke:#000000;stroke-width:15.60000038;stroke-linecap:round;stroke-linejoin:miter;stroke-miterlimit:4;stroke-opacity:1;stroke-dasharray:none"
           d="m 284.96403,563.75139 c 53.10346,-13.43865 89.72579,-4.34949 125.86501,12.72793"
           id="path3835"
           inkscape:connector-curvature="0"
           sodipodi:nodetypes="cc" />
        <path
           style="fill:none;stroke:#000000;stroke-width:13.69999981;stroke-linecap:round;stroke-linejoin:miter;stroke-miterlimit:4;stroke-opacity:1;stroke-dasharray:none"
           d="m 287.08536,600.52095 c 47.33413,-12.0864 85.27778,-1.78721 112.42997,13.43503"
           id="path3837"
           inkscape:connector-curvature="0"
           sodipodi:nodetypes="cc" />
      </g>
    </g>
    <g
       id="g3851"
       transform="matrix(0.26666667,0,0,0.26666667,592.83758,10.423761)">
      <rect
         style="fill:#1ed760;fill-opacity:1;stroke:none"
         id="rect3853"
         width="240"
         height="240"
         x="-265"
         y="436.36218" />
      <g
         id="g3855"
         transform="translate(-498.19984,-6.282943)">
        <path
           sodipodi:nodetypes="cc"
           inkscape:connector-curvature="0"
           id="path3857"
           d="m 279.30718,522.7392 c 56.7298,-15.44466 104.20313,-4.44227 147.78532,17.67767"
           style="fill:none;stroke:#000000;stroke-width:22.10000038;stroke-linecap:round;stroke-linejoin:miter;stroke-miterlimit:4;stroke-opacity:1;stroke-dasharray:none" />
        <path
           sodipodi:nodetypes="cc"
           inkscape:connector-curvature="0"
           id="path3859"
           d="m 284.96403,563.75139 c 53.10346,-13.43865 89.72579,-4.34949 125.86501,12.72793"
           style="fill:none;stroke:#000000;stroke-width:15.60000038;stroke-linecap:round;stroke-linejoin:miter;stroke-miterlimit:4;stroke-opacity:1;stroke-dasharray:none" />
        <path
           sodipodi:nodetypes="cc"
           inkscape:connector-curvature="0"
           id="path3861"
           d="m 287.08536,600.52095 c 47.33413,-12.0864 85.27778,-1.78721 112.42997,13.43503"
           style="fill:none;stroke:#000000;stroke-width:13.69999981;stroke-linecap:round;stroke-linejoin:miter;stroke-miterlimit:4;stroke-opacity:1;stroke-dasharray:none" />
      </g>
    </g>
    <g
       id="g3880"
       inkscape:export-xdpi="90"
       inkscape:export-ydpi="90"
       transform="translate(558.48463,-662.07474)">
      <rect
         style="fill:#1ed760;fill-opacity:1;stroke:none"
         id="rect3865"
         width="240"
         height="240"
         x="-276.31372"
         y="724.86176" />
      <path
         style="fill:#181818;fill-opacity:1;stroke:none"
         d="m -213.85917,770.52696 c -4.2391,-0.0675 -7.79723,3.43364 -7.86457,7.67274 l 0,133.31397 c -0.0675,4.2391 3.24183,7.60541 7.48093,7.67274 l 0.19151,0 c 1.77787,0.1019 3.01238,-0.52052 3.83638,-0.95909 l 114.515734,-66.17743 1.15091,-0.76728 c 2.09024,-1.34353 3.60221,-3.6642 3.64456,-6.33002 0.0491,-2.93767 -1.67248,-5.07328 -3.93231,-6.56977 l -0.86285,-0.52727 -114.323924,-66.17744 c -1.14796,-0.58742 -2.60137,-1.07406 -3.83637,-1.15091 z"
         id="path3057"
         inkscape:connector-curvature="0"
         sodipodi:nodetypes="ccccccccscccc" />
    </g>
    <g
       id="g3884"
       transform="matrix(0.26666667,0,0,0.26666667,595.85457,-130.50946)"
       inkscape:export-xdpi="90"
       inkscape:export-ydpi="90">
      <rect
         y="724.86176"
         x="-276.31372"
         height="240"
         width="240"
         id="rect3886"
         style="fill:#1ed760;fill-opacity:1;stroke:none" />
      <path
         sodipodi:nodetypes="ccccccccscccc"
         inkscape:connector-curvature="0"
         id="path3888"
         d="m -213.85917,770.52696 c -4.2391,-0.0675 -7.79723,3.43364 -7.86457,7.67274 l 0,133.31397 c -0.0675,4.2391 3.24183,7.60541 7.48093,7.67274 l 0.19151,0 c 1.77787,0.1019 3.01238,-0.52052 3.83638,-0.95909 l 114.515734,-66.17743 1.15091,-0.76728 c 2.09024,-1.34353 3.60221,-3.6642 3.64456,-6.33002 0.0491,-2.93767 -1.67248,-5.07328 -3.93231,-6.56977 l -0.86285,-0.52727 -114.323924,-66.17744 c -1.14796,-0.58742 -2.60137,-1.07406 -3.83637,-1.15091 z"
         style="fill:#181818;fill-opacity:1;stroke:none" />
    </g>
  </g>
</svg>
